HIERARCHY
ROOT newVegas:Hips
{
	OFFSET 0.000000 96.479958 0.000000
	CHANNELS 6 Xposition Yposition Zposition Xrotation Yrotation Zrotation
	JOINT newVegas:Pelvis
	{
		OFFSET 0.000000 0.000000 0.000000
		CHANNELS 3 Xrotation Yrotation Zrotation
		JOINT newVegas:LeftUpLeg
		{
			OFFSET 18.735201 -5.666702 -4.541200
			CHANNELS 3 Xrotation Yrotation Zrotation
			JOINT newVegas:LeftLeg
			{
				OFFSET -0.021200 -31.938179 0.493100
				CHANNELS 3 Xrotation Yrotation Zrotation
				JOINT newVegas:LeftFoot
				{
					OFFSET 0.021200 -31.938179 -4.336299
					CHANNELS 3 Xrotation Yrotation Zrotation
					JOINT newVegas:LeftToeBase
					{
						OFFSET 0.943001 -26.722000 15.023500
						CHANNELS 3 Xrotation Yrotation Zrotation
						End Site
						{
							OFFSET 0.000000 30.670183 0.000000
						}
					}
				}
				JOINT newVegas:Left_PantLeg
				{
					OFFSET 0.663870 -9.044666 -1.108900
					CHANNELS 3 Xrotation Yrotation Zrotation
					End Site
					{
						OFFSET 1.415995 20.635357 0.000000
					}
				}
			}
		}
		JOINT newVegas:RightUpLeg
		{
			OFFSET -18.735201 -5.666702 -4.541200
			CHANNELS 3 Xrotation Yrotation Zrotation
			JOINT newVegas:RightLeg
			{
				OFFSET 0.018946 -31.938133 0.493100
				CHANNELS 3 Xrotation Yrotation Zrotation
				JOINT newVegas:RightFoot
				{
					OFFSET -0.018946 -31.938126 -4.336299
					CHANNELS 3 Xrotation Yrotation Zrotation
					JOINT newVegas:RightToeBase
					{
						OFFSET -0.943001 -26.722004 15.023500
						CHANNELS 3 Xrotation Yrotation Zrotation
						End Site
						{
							OFFSET 0.000000 30.670187 0.000000
						}
					}
				}
				JOINT newVegas:Right_PantLeg
				{
					OFFSET -0.661674 -9.044716 -1.108900
					CHANNELS 3 Xrotation Yrotation Zrotation
					End Site
					{
						OFFSET -1.415958 20.635269 0.000000
					}
				}
			}
		}
	}
	JOINT newVegas:Spine
	{
		OFFSET 0.000000 10.199997 -0.299500
		CHANNELS 3 Xrotation Yrotation Zrotation
		JOINT newVegas:Spine1
		{
			OFFSET 0.000000 11.900002 -1.516600
			CHANNELS 3 Xrotation Yrotation Zrotation
			JOINT newVegas:Spine2
			{
				OFFSET 0.000000 13.600006 -2.842500
				CHANNELS 3 Xrotation Yrotation Zrotation
				JOINT newVegas:Neck
				{
					OFFSET 0.000000 9.624100 -2.890100
					CHANNELS 3 Xrotation Yrotation Zrotation
					JOINT newVegas:Head
					{
						OFFSET 0.000000 14.068802 -1.351900
						CHANNELS 3 Xrotation Yrotation Zrotation
						JOINT newVegas:Hair_Back
						{
							OFFSET 0.000000 3.231903 -17.524799
							CHANNELS 3 Xrotation Yrotation Zrotation
							End Site
							{
								OFFSET 0.000000 19.849884 0.000000
							}
						}
						JOINT newVegas:Hair_Front
						{
							OFFSET 0.000000 31.260406 4.573800
							CHANNELS 3 Xrotation Yrotation Zrotation
							JOINT newVegas:Hair_Front1
							{
								OFFSET 0.000000 2.284103 11.993300
								CHANNELS 3 Xrotation Yrotation Zrotation
								JOINT newVegas:Hair_Front2
								{
									OFFSET 0.000000 2.284103 11.993300
									CHANNELS 3 Xrotation Yrotation Zrotation
									End Site
									{
										OFFSET 0.000000 12.208862 0.000000
									}
								}
							}
						}
						JOINT newVegas:Jowel
						{
							OFFSET 0.000000 -7.458206 6.864100
							CHANNELS 3 Xrotation Yrotation Zrotation
							End Site
							{
								OFFSET 0.000000 19.849884 0.000000
							}
						}
					}
				}
				JOINT newVegas:LeftShoulder
				{
					OFFSET 15.263000 10.923401 -0.547700
					CHANNELS 3 Xrotation Yrotation Zrotation
					JOINT newVegas:LeftArm
					{
						OFFSET 25.438599 -2.830597 -13.032500
						CHANNELS 3 Xrotation Yrotation Zrotation
						JOINT newVegas:LeftForeArm
						{
							OFFSET 29.960503 0.000000 0.000000
							CHANNELS 3 Xrotation Yrotation Zrotation
							JOINT newVegas:LeftHand
							{
								OFFSET 27.849251 0.000000 0.000000
								CHANNELS 3 Xrotation Yrotation Zrotation
								JOINT newVegas:LeftHandThumb1
								{
									OFFSET 4.487587 -3.305161 6.305391
									CHANNELS 3 Xrotation Yrotation Zrotation
									JOINT newVegas:LeftHandThumb2
									{
										OFFSET 5.480453 -3.164139 3.164143
										CHANNELS 3 Xrotation Yrotation Zrotation
										JOINT newVegas:LeftHandThumb3
										{
											OFFSET 5.159721 -2.978973 2.978967
											CHANNELS 3 Xrotation Yrotation Zrotation
											End Site
											{
												OFFSET 2.494507 5.926697 1.738678
											}
										}
									}
								}
								JOINT newVegas:LeftHandIndex1
								{
									OFFSET 18.578728 -0.527832 5.208049
									CHANNELS 3 Xrotation Yrotation Zrotation
									JOINT newVegas:LeftHandIndex2
									{
										OFFSET 3.192009 0.000000 0.000000
										CHANNELS 3 Xrotation Yrotation Zrotation
										JOINT newVegas:LeftHandIndex3
										{
											OFFSET 3.835129 0.000000 0.000000
											CHANNELS 3 Xrotation Yrotation Zrotation
											End Site
											{
												OFFSET -0.034599 3.816971 0.371180
											}
										}
									}
								}
								JOINT newVegas:LeftHandMiddle1
								{
									OFFSET 18.476105 0.000000 0.000000
									CHANNELS 3 Xrotation Yrotation Zrotation
									JOINT newVegas:LeftHandMiddle2
									{
										OFFSET 3.324875 0.000000 0.000000
										CHANNELS 3 Xrotation Yrotation Zrotation
										JOINT newVegas:LeftHandMiddle3
										{
											OFFSET 4.596550 0.000000 0.000000
											CHANNELS 3 Xrotation Yrotation Zrotation
											End Site
											{
												OFFSET 0.057701 4.578827 0.399218
											}
										}
									}
								}
								JOINT newVegas:LeftHandRing1
								{
									OFFSET 17.732719 0.121887 -4.201567
									CHANNELS 3 Xrotation Yrotation Zrotation
									JOINT newVegas:LeftHandRing2
									{
										OFFSET 2.733170 0.000000 0.000000
										CHANNELS 3 Xrotation Yrotation Zrotation
										JOINT newVegas:LeftHandRing3
										{
											OFFSET 3.178268 0.000000 0.000000
											CHANNELS 3 Xrotation Yrotation Zrotation
											End Site
											{
												OFFSET 0.119102 3.170624 0.185394
											}
										}
									}
								}
								JOINT newVegas:LeftHandPinky1
								{
									OFFSET 15.989624 -0.606689 -7.535461
									CHANNELS 3 Xrotation Yrotation Zrotation
									JOINT newVegas:LeftHandPinky2
									{
										OFFSET 2.538986 0.000000 0.000000
										CHANNELS 3 Xrotation Yrotation Zrotation
										JOINT newVegas:LeftHandPinky3
										{
											OFFSET 2.593102 0.000000 0.000000
											CHANNELS 3 Xrotation Yrotation Zrotation
											End Site
											{
												OFFSET -0.150902 2.584198 0.152708
											}
										}
									}
								}
							}
							JOINT newVegas:Left_Sleeve
							{
								OFFSET 0.267448 -0.649796 0.577675
								CHANNELS 3 Xrotation Yrotation Zrotation
								End Site
								{
									OFFSET 0.000000 15.991241 0.000000
								}
							}
							JOINT newVegas:Left_CapeC
							{
								OFFSET 15.715958 -8.608795 -6.935905
								CHANNELS 3 Xrotation Yrotation Zrotation
								JOINT newVegas:Left_CapeC1
								{
									OFFSET 0.000000 -8.688499 0.000000
									CHANNELS 3 Xrotation Yrotation Zrotation
									End Site
									{
										OFFSET 0.000000 8.688499 0.000000
									}
								}
							}
						}
						JOINT newVegas:Left_CapeB
						{
							OFFSET 26.118385 -8.608795 -7.079235
							CHANNELS 3 Xrotation Yrotation Zrotation
							JOINT newVegas:Left_CapeB1
							{
								OFFSET 0.000000 -8.688499 0.000000
								CHANNELS 3 Xrotation Yrotation Zrotation
								End Site
								{
									OFFSET 0.000000 8.688499 0.000000
								}
							}
						}
						JOINT newVegas:Left_CapeA
						{
							OFFSET 5.115639 -8.608795 -10.395809
							CHANNELS 3 Xrotation Yrotation Zrotation
							JOINT newVegas:Left_CapeA1
							{
								OFFSET 0.000000 -8.688499 0.000000
								CHANNELS 3 Xrotation Yrotation Zrotation
								End Site
								{
									OFFSET 0.000000 8.688499 0.000000
								}
							}
						}
					}
				}
				JOINT newVegas:RightShoulder
				{
					OFFSET -15.263000 10.923401 -0.547700
					CHANNELS 3 Xrotation Yrotation Zrotation
					JOINT newVegas:RightArm
					{
						OFFSET -25.438599 -2.830597 -13.032500
						CHANNELS 3 Xrotation Yrotation Zrotation
						JOINT newVegas:RightForeArm
						{
							OFFSET -29.960503 0.000000 0.000000
							CHANNELS 3 Xrotation Yrotation Zrotation
							JOINT newVegas:RightHand
							{
								OFFSET -27.849251 0.000000 0.000000
								CHANNELS 3 Xrotation Yrotation Zrotation
								JOINT newVegas:RightHandThumb1
								{
									OFFSET -4.487587 -3.305161 6.305391
									CHANNELS 3 Xrotation Yrotation Zrotation
									JOINT newVegas:RightHandThumb2
									{
										OFFSET -5.480453 -3.164139 3.164143
										CHANNELS 3 Xrotation Yrotation Zrotation
										JOINT newVegas:RightHandThumb3
										{
											OFFSET -5.159721 -2.978973 2.978967
											CHANNELS 3 Xrotation Yrotation Zrotation
											End Site
											{
												OFFSET -2.494507 5.926697 1.738678
											}
										}
									}
								}
								JOINT newVegas:RightHandIndex1
								{
									OFFSET -18.578728 -0.527832 5.208049
									CHANNELS 3 Xrotation Yrotation Zrotation
									JOINT newVegas:RightHandIndex2
									{
										OFFSET -3.192009 0.000000 0.000000
										CHANNELS 3 Xrotation Yrotation Zrotation
										JOINT newVegas:RightHandIndex3
										{
											OFFSET -3.835129 0.000000 0.000000
											CHANNELS 3 Xrotation Yrotation Zrotation
											End Site
											{
												OFFSET 0.034599 3.816971 0.371180
											}
										}
									}
								}
								JOINT newVegas:RightHandMiddle1
								{
									OFFSET -18.476105 0.000000 0.000000
									CHANNELS 3 Xrotation Yrotation Zrotation
									JOINT newVegas:RightHandMiddle2
									{
										OFFSET -3.324875 0.000000 0.000000
										CHANNELS 3 Xrotation Yrotation Zrotation
										JOINT newVegas:RightHandMiddle3
										{
											OFFSET -4.596550 0.000000 0.000000
											CHANNELS 3 Xrotation Yrotation Zrotation
											End Site
											{
												OFFSET -0.057701 4.578827 0.399218
											}
										}
									}
								}
								JOINT newVegas:RightHandRing1
								{
									OFFSET -17.732719 0.121887 -4.201567
									CHANNELS 3 Xrotation Yrotation Zrotation
									JOINT newVegas:RightHandRing2
									{
										OFFSET -2.733170 0.000000 0.000000
										CHANNELS 3 Xrotation Yrotation Zrotation
										JOINT newVegas:RightHandRing3
										{
											OFFSET -3.178268 0.000000 0.000000
											CHANNELS 3 Xrotation Yrotation Zrotation
											End Site
											{
												OFFSET -0.119102 3.170624 0.185394
											}
										}
									}
								}
								JOINT newVegas:RightHandPinky1
								{
									OFFSET -15.989624 -0.606689 -7.535461
									CHANNELS 3 Xrotation Yrotation Zrotation
									JOINT newVegas:RightHandPinky2
									{
										OFFSET -2.538986 0.000000 0.000000
										CHANNELS 3 Xrotation Yrotation Zrotation
										JOINT newVegas:RightHandPinky3
										{
											OFFSET -2.593102 0.000000 0.000000
											CHANNELS 3 Xrotation Yrotation Zrotation
											End Site
											{
												OFFSET 0.150902 2.584198 0.152708
											}
										}
									}
								}
							}
							JOINT newVegas:Right_CapeC
							{
								OFFSET -15.715958 -8.608795 -6.935905
								CHANNELS 3 Xrotation Yrotation Zrotation
								JOINT newVegas:Right_CapeC1
								{
									OFFSET 0.000000 -8.688499 0.000000
									CHANNELS 3 Xrotation Yrotation Zrotation
									End Site
									{
										OFFSET 0.000000 8.688499 0.000000
									}
								}
							}
							JOINT newVegas:Right_Sleeve
							{
								OFFSET -0.267448 -0.649994 0.577675
								CHANNELS 3 Xrotation Yrotation Zrotation
								End Site
								{
									OFFSET 0.000000 15.991302 0.000000
								}
							}
						}
						JOINT newVegas:Right_CapeA
						{
							OFFSET -5.115540 -8.608795 -10.395824
							CHANNELS 3 Xrotation Yrotation Zrotation
							JOINT newVegas:Right_CapeA1
							{
								OFFSET 0.000000 -8.688499 0.000000
								CHANNELS 3 Xrotation Yrotation Zrotation
								End Site
								{
									OFFSET 0.000000 8.688499 0.000000
								}
							}
						}
						JOINT newVegas:Right_CapeB
						{
							OFFSET -26.118187 -8.608795 -7.079266
							CHANNELS 3 Xrotation Yrotation Zrotation
							JOINT newVegas:Right_CapeB1
							{
								OFFSET 0.000000 -8.688499 0.000000
								CHANNELS 3 Xrotation Yrotation Zrotation
								End Site
								{
									OFFSET 0.000000 8.688499 0.000000
								}
							}
						}
					}
				}
				JOINT newVegas:Left_Collar
				{
					OFFSET 18.625099 8.655502 8.828100
					CHANNELS 3 Xrotation Yrotation Zrotation
					JOINT newVegas:Left_Collar1
					{
						OFFSET 14.783401 10.540405 -1.259500
						CHANNELS 3 Xrotation Yrotation Zrotation
						End Site
						{
							OFFSET 0.000000 18.199875 0.000000
						}
					}
				}
				JOINT newVegas:Collar_Back
				{
					OFFSET 0.000000 15.630707 -20.132601
					CHANNELS 3 Xrotation Yrotation Zrotation
					End Site
					{
						OFFSET 0.000000 22.523010 0.000000
					}
				}
				JOINT newVegas:Left_Peck
				{
					OFFSET 17.239599 -5.132599 25.482599
					CHANNELS 3 Xrotation Yrotation Zrotation
					End Site
					{
						OFFSET 0.000000 22.523010 0.000000
					}
				}
				JOINT newVegas:Right_Peck
				{
					OFFSET -17.239599 -5.132202 25.482599
					CHANNELS 3 Xrotation Yrotation Zrotation
					End Site
					{
						OFFSET 0.000000 22.523010 0.000000
					}
				}
				JOINT newVegas:Right_Collar
				{
					OFFSET -18.625099 8.655792 8.828100
					CHANNELS 3 Xrotation Yrotation Zrotation
					JOINT newVegas:Right_Collar1
					{
						OFFSET -14.783401 10.539993 -1.259500
						CHANNELS 3 Xrotation Yrotation Zrotation
						End Site
						{
							OFFSET 0.000000 18.199631 0.000000
						}
					}
				}
			}
		}
		JOINT newVegas:Belly
		{
			OFFSET 0.000000 -6.540398 9.014299
			CHANNELS 3 Xrotation Yrotation Zrotation
			End Site
			{
				OFFSET 0.000000 11.566666 0.000000
			}
		}
	}
	JOINT newVegas:ElvisFacialAnim_Joint
	{
		OFFSET 1.000000 -95.330101 -8.825800
		CHANNELS 3 Xrotation Yrotation Zrotation
		End Site
		{
			OFFSET 0.000000 35.315800 0.000000
		}
	}
}
MOTION
Frames: 4
Frame Time: 0.033333
-1.029238 80.600266 4.156304 -0.862887 -13.647545 -2.158540 -0.000000 -0.000000 0.000000 -53.619809 5.750349 26.780588 63.808495 -2.472258 10.491553 -8.215597 2.444037 -17.251859 0.000000 -0.000000 -0.000000 -0.000000 -0.000001 0.000000 -46.524725 -8.948419 -25.940642 57.972603 10.301664 -9.863739 -10.789687 -3.359750 20.747741 0.000000 -0.000002 0.000000 -0.000000 -0.000001 0.000001 40.640572 -0.004879 -1.178942 3.361319 0.139867 -1.172648 3.363493 0.056499 -1.172267 -3.056091 0.721095 -1.731531 -3.056132 0.721095 -1.731532 0.000003 -0.000001 0.000000 -3.056115 0.721094 -1.731530 -3.055995 0.721100 -1.731537 -0.000002 -0.000000 -0.000000 0.000003 -0.000001 0.000000 4.968764 -12.323734 -8.930762 -29.983827 -14.059791 -45.972535 -0.001445 -90.833996 -0.001496 12.525297 12.669568 24.918927 -1.540051 3.690190 6.142361 3.939042 7.948675 0.746800 -0.000003 0.000000 0.000001 -0.000005 -0.000000 -0.000003 0.000002 0.000005 -0.000012 0.000000 -0.000000 -0.000001 0.000003 -0.001930 0.015981 -0.000007 0.001936 -0.015974 -0.000005 -0.000001 0.000000 -0.000007 0.000006 0.000006 -0.000001 -0.000011 -0.000003 -0.000001 0.000001 -0.000000 -0.018087 4.054247 0.511072 -0.018096 -4.054239 -0.511067 -0.000002 -0.000005 -0.000001 0.000000 0.000001 0.000002 0.000000 0.000001 0.000002 -0.000000 0.000000 0.000002 -0.000002 -0.000002 -0.000001 -0.000002 -0.000002 -0.000001 -0.000002 -0.000002 -0.000001 -0.000004 -0.000002 -0.000001 6.346947 15.099989 2.356311 -17.735308 8.082457 50.710767 0.000068 105.714895 -0.000050 2.791588 13.061432 -3.168510 -1.849242 -3.581803 -6.586145 4.637176 -8.634130 -0.225392 0.000000 -0.000003 0.000001 0.000005 -0.000002 -0.000007 -0.000004 0.000013 0.000010 -0.000002 -0.000000 0.000001 0.000001 -0.000005 -0.000005 0.000006 0.000006 0.000004 -0.000000 -0.000000 -0.000005 0.000001 0.000001 -0.000006 -0.000005 -0.000001 0.000013 -0.000002 0.000001 -0.000004 0.000009 -0.000002 -0.000020 -0.000005 0.000003 0.000029 0.000002 0.000002 -0.000003 -0.000003 -0.000001 -0.000001 -0.000003 -0.000000 0.000001 -0.000003 -0.000001 -0.000001 -0.000001 0.000001 -0.000002 -0.000001 0.000002 -0.000001 -0.000001 0.000001 -0.000002 -0.000001 0.000002 -0.000001 0.000002 -0.000001 -0.000000 0.000002 -0.000001 -0.000000 0.000002 -0.000001 -0.000000 0.000002 -0.000001 -0.000000 0.000002 -0.000001 -0.000000 0.000002 -0.000001 -0.000000 0.000002 -0.000001 -0.000000 -0.000002 -0.000000 -0.000000 -0.000000 -0.000000 0.000000 
-1.101828 80.562485 4.225487 -0.956597 -13.574678 -2.235770 0.000000 0.000000 0.000000 -53.730298 5.678988 27.101456 63.932715 -2.951741 10.481105 -7.896344 2.452463 -17.491018 0.000000 0.000000 -0.000000 -0.000000 0.000001 0.000003 -46.336570 -8.899263 -25.820499 58.188793 10.116727 -9.862284 -11.040127 -3.399728 20.770506 -0.000000 -0.000003 -0.000000 0.000001 -0.000001 -0.000000 40.744612 0.159501 -1.285085 3.329279 0.171008 -1.167801 3.331803 0.087979 -1.168848 -3.071487 0.737757 -1.809411 -3.071498 0.737760 -1.809416 0.000003 0.000000 0.000001 -3.071623 0.737748 -1.809408 -3.071386 0.737768 -1.809417 -0.000001 -0.000000 -0.000000 0.000003 0.000000 0.000001 4.964535 -12.361836 -9.094018 -30.095729 -14.356383 -45.634403 -0.002475 -90.472337 -0.002214 12.222432 13.902299 26.575557 -1.540045 3.690192 6.142356 3.939041 7.948674 0.746798 0.000004 -0.000003 -0.000003 -0.000004 0.000001 -0.000005 -0.000001 0.000005 -0.000011 -0.000001 -0.000001 0.000000 0.000006 -0.001929 0.015979 -0.000006 0.001935 -0.015976 0.000003 0.000001 0.000001 -0.000009 0.000007 0.000004 -0.000001 -0.000011 -0.000002 0.000001 -0.000001 -0.000000 -0.018086 4.054249 0.511071 -0.018094 -4.054243 -0.511067 0.000003 -0.000003 0.000001 -0.000000 0.000001 0.000002 -0.000000 0.000001 0.000002 -0.000000 0.000001 0.000002 0.000002 -0.000002 -0.000002 0.000002 -0.000001 -0.000002 0.000002 -0.000002 -0.000002 0.000001 -0.000001 -0.000003 6.341050 15.056858 2.261068 -17.558086 7.923387 50.748736 -0.000003 106.020457 0.000000 2.084355 12.330902 -1.242116 -1.849243 -3.581801 -6.586140 4.637178 -8.634131 -0.225385 -0.000000 -0.000003 -0.000003 0.000006 -0.000002 -0.000009 -0.000009 0.000014 0.000011 0.000001 0.000001 -0.000001 -0.000001 -0.000005 -0.000007 0.000004 0.000006 0.000003 0.000001 -0.000001 0.000002 -0.000003 0.000001 -0.000005 0.000000 -0.000005 0.000011 -0.000000 0.000001 0.000002 0.000009 -0.000002 -0.000023 -0.000009 0.000005 0.000026 0.000000 -0.000000 -0.000001 -0.000000 -0.000001 0.000002 -0.000000 -0.000003 0.000003 -0.000000 -0.000001 0.000000 0.000001 0.000001 -0.000000 0.000001 0.000002 -0.000001 0.000001 0.000001 -0.000000 0.000001 0.000002 0.000001 -0.000000 -0.000000 -0.000000 -0.000000 -0.000000 -0.000000 -0.000000 -0.000000 -0.000000 -0.000000 -0.000000 -0.000000 -0.000000 -0.000000 -0.000000 -0.000000 -0.000000 -0.000000 -0.000000 -0.000000 -0.000000 -0.000001 0.000000 -0.000000 0.000000 0.000000 0.000000 
-1.222977 80.538704 4.297440 -1.046348 -13.548821 -2.299130 -0.000000 -0.000000 0.000000 -53.791486 5.771643 27.568158 63.961170 -3.575043 10.469846 -7.664770 2.472273 -17.725381 -0.000000 -0.000001 -0.000000 -0.000001 -0.000000 0.000001 -46.155908 -8.832850 -25.649064 58.422768 9.909216 -9.857526 -11.309829 -3.427868 20.755550 0.000000 -0.000002 0.000000 0.000002 0.000000 -0.000001 40.795070 0.340166 -1.412023 3.317251 0.206304 -1.184235 3.320241 0.122208 -1.186721 -3.093234 0.751420 -1.886270 -3.093230 0.751417 -1.886270 -0.000000 -0.000000 -0.000000 -3.093191 0.751413 -1.886269 -3.093211 0.751429 -1.886270 -0.000001 0.000000 -0.000000 -0.000000 -0.000000 -0.000000 4.962773 -12.395814 -9.217104 -30.186281 -14.464312 -45.343990 -0.003602 -90.239592 -0.004160 12.121818 15.206402 27.972353 -1.540048 3.690193 6.142355 3.939046 7.948675 0.746797 -0.000002 -0.000004 -0.000007 -0.000004 0.000000 -0.000004 -0.000003 0.000004 -0.000013 -0.000006 -0.000002 0.000001 0.000003 -0.001929 0.015979 -0.000004 0.001934 -0.015975 -0.000000 0.000000 0.000000 -0.000007 0.000006 0.000006 0.000002 -0.000009 -0.000003 -0.000000 -0.000001 0.000001 -0.018087 4.054249 0.511072 -0.018088 -4.054240 -0.511068 0.000003 -0.000005 0.000000 -0.000000 -0.000002 0.000000 -0.000000 -0.000002 0.000000 -0.000001 -0.000003 0.000000 0.000000 0.000001 0.000000 0.000001 0.000001 0.000000 0.000000 0.000001 0.000000 -0.000001 0.000001 0.000000 6.340504 15.068369 2.308888 -17.494888 7.628021 50.509341 0.000091 106.336517 -0.000109 1.300957 11.697760 1.708728 -1.849246 -3.581800 -6.586142 4.637175 -8.634139 -0.225395 -0.000002 -0.000000 -0.000000 0.000005 -0.000003 -0.000007 -0.000005 0.000012 0.000010 0.000001 0.000001 -0.000000 0.000001 -0.000006 -0.000007 0.000004 0.000006 0.000005 -0.000001 -0.000000 0.000002 -0.000002 0.000003 -0.000012 -0.000001 -0.000007 0.000012 -0.000001 0.000001 0.000003 0.000009 -0.000002 -0.000020 -0.000006 0.000003 0.000027 -0.000004 -0.000002 -0.000000 -0.000002 0.000001 -0.000000 -0.000000 -0.000002 -0.000001 -0.000002 0.000001 -0.000002 -0.000000 0.000002 0.000001 -0.000000 0.000003 0.000002 -0.000000 0.000002 0.000001 -0.000000 0.000003 0.000002 -0.000001 0.000000 -0.000001 -0.000001 0.000000 -0.000001 -0.000001 0.000000 -0.000001 -0.000001 0.000000 -0.000001 -0.000001 0.000000 -0.000001 -0.000001 0.000000 -0.000001 -0.000001 0.000000 -0.000001 0.000002 0.000000 0.000000 -0.000000 -0.000000 0.000000 
-1.416040 80.530876 4.367371 -1.136813 -13.655858 -2.362638 0.000000 0.000001 -0.000000 -53.791080 6.052863 28.255576 63.910524 -4.304748 10.459724 -7.556570 2.508257 -17.946653 -0.000000 0.000001 0.000000 -0.000001 0.000001 0.000002 -46.043507 -8.786953 -25.394710 58.684637 9.768716 -9.849840 -11.571732 -3.434290 20.629012 0.000000 -0.000002 -0.000000 0.000001 -0.000002 -0.000002 40.784224 0.611725 -1.602035 3.318971 0.260351 -1.234888 3.322834 0.172814 -1.239325 -3.107600 0.763402 -1.964281 -3.107622 0.763407 -1.964282 0.000000 -0.000000 -0.000000 -3.107604 0.763398 -1.964283 -3.107618 0.763409 -1.964280 0.000001 0.000000 -0.000000 0.000000 -0.000000 -0.000000 4.969930 -12.406515 -9.172843 -30.255525 -14.262373 -45.242039 -0.000069 -90.065518 -0.002800 12.320708 15.604037 28.755062 -1.540054 3.690193 6.142354 3.939049 7.948674 0.746798 0.000003 -0.000003 -0.000005 -0.000009 0.000000 -0.000003 0.000004 0.000005 -0.000013 -0.000002 -0.000000 -0.000001 -0.000002 -0.001931 0.015981 0.000002 0.001935 -0.015975 0.000001 0.000001 0.000001 -0.000008 0.000007 0.000006 0.000003 -0.000009 -0.000002 0.000000 0.000001 -0.000000 -0.018088 4.054247 0.511071 -0.018088 -4.054239 -0.511070 0.000000 -0.000003 -0.000000 -0.000001 0.000001 0.000003 -0.000001 0.000001 0.000003 -0.000002 0.000001 0.000003 -0.000001 -0.000001 -0.000000 -0.000001 -0.000002 -0.000002 -0.000001 -0.000001 -0.000000 -0.000002 -0.000001 -0.000000 6.315690 15.034913 2.449261 -17.482716 7.350099 50.238299 -0.000058 106.584856 0.000036 0.681585 11.310916 4.839680 -1.849245 -3.581802 -6.586136 4.637179 -8.634134 -0.225386 -0.000000 0.000001 -0.000004 0.000004 -0.000002 -0.000009 -0.000008 0.000013 0.000014 -0.000001 0.000000 -0.000001 -0.000001 -0.000006 -0.000007 0.000003 0.000006 0.000003 -0.000001 0.000001 0.000002 -0.000002 0.000002 -0.000007 -0.000000 -0.000005 0.000011 -0.000001 0.000001 0.000002 0.000008 -0.000004 -0.000021 -0.000007 -0.000000 0.000029 -0.000002 0.000001 0.000001 -0.000004 0.000000 0.000003 -0.000002 -0.000001 0.000002 -0.000004 -0.000000 0.000001 -0.000002 0.000003 0.000001 -0.000002 0.000003 0.000002 -0.000002 0.000003 0.000001 -0.000002 0.000003 0.000002 -0.000000 -0.000001 0.000000 -0.000000 -0.000001 0.000000 -0.000000 -0.000001 0.000000 -0.000000 -0.000001 0.000000 -0.000000 -0.000001 0.000000 -0.000000 -0.000001 0.000000 -0.000000 -0.000001 0.000000 -0.000002 -0.000000 0.000001 0.000000 0.000001 -0.000000 
